<svg width="20" height="20" viewBox="0 0 20 20" fill="none" xmlns="http://www.w3.org/2000/svg" class="mr-4" style="margin-top: -7px;"><path d="M14.8311 10.4835C14.8401 9.78796 15.0248 9.10598 15.3682 8.50102C15.7115 7.89605 16.2023 7.38777 16.7949 7.02346C16.4184 6.48583 15.9218 6.04338 15.3445 5.73125C14.7671 5.41912 14.1249 5.24592 13.4689 5.22539C12.0696 5.07851 10.7129 6.06275 9.99984 6.06275C9.27295 6.06275 8.17503 5.23998 6.99276 5.2643C6.22803 5.28901 5.48274 5.51139 4.82951 5.90977C4.17628 6.30815 3.63738 6.86895 3.26533 7.53753C1.65366 10.3279 2.85582 14.4288 4.39966 16.6843C5.17208 17.7887 6.07481 19.0224 7.25602 18.9787C8.4119 18.9307 8.8436 18.2416 10.2389 18.2416C11.6212 18.2416 12.0262 18.9787 13.2314 18.9509C14.4717 18.9307 15.2531 17.8415 15.9984 16.7266C16.5534 15.9396 16.9805 15.0698 17.2638 14.1495C16.5432 13.8447 15.9283 13.3346 15.4957 12.6826C15.0631 12.0307 14.8319 11.2659 14.8311 10.4835Z" fill="white"></path> <path d="M12.5547 3.7421C13.231 2.93026 13.5642 1.88678 13.4835 0.833252C12.4503 0.941769 11.4959 1.43557 10.8105 2.21626C10.4754 2.59765 10.2187 3.04135 10.0552 3.52199C9.89166 4.00263 9.82446 4.51079 9.85743 5.01742C10.3742 5.02274 10.8855 4.91073 11.3527 4.68982C11.8199 4.46892 12.2309 4.14487 12.5547 3.7421Z" fill="white"></path></svg>