<svg width="33" height="32" viewBox="0 0 33 32" fill="none" xmlns="http://www.w3.org/2000/svg">
<g clip-path="url(#clip0_3775_11512)">
<path d="M16.5 32C25.3366 32 32.5 24.8366 32.5 16C32.5 7.16344 25.3366 0 16.5 0C7.66344 0 0.5 7.16344 0.5 16C0.5 24.8366 7.66344 32 16.5 32Z" fill="white" fill-opacity="0.04"/>
<path d="M16.5 31.5C25.0604 31.5 32 24.5604 32 16C32 7.43959 25.0604 0.5 16.5 0.5C7.93959 0.5 1 7.43959 1 16C1 24.5604 7.93959 31.5 16.5 31.5Z" stroke="white" stroke-opacity="0.25"/>
<path d="M20.7513 17.015L21.2644 13.7808H18.0548V11.683C18.0548 10.798 18.5023 9.93481 19.9399 9.93481H21.4V7.18141C21.4 7.18141 20.0755 6.96289 18.8097 6.96289C16.1652 6.96289 14.4384 8.51221 14.4384 11.3159V13.7808H11.5V17.015H14.4384V24.8338C15.0283 24.9234 15.6318 24.9692 16.2466 24.9692C16.8614 24.9692 17.4649 24.9234 18.0548 24.8338V17.015H20.7513Z" fill="white"/>
</g>
<defs>
<clipPath id="clip0_3775_11512">
<rect width="32" height="32" fill="white" transform="translate(0.5)"/>
</clipPath>
</defs>
</svg>
