<svg width="33" height="32" viewBox="0 0 33 32" fill="none" xmlns="http://www.w3.org/2000/svg">
<g clip-path="url(#clip0_3775_11520)">
<path d="M16.5 32C25.3366 32 32.5 24.8366 32.5 16C32.5 7.16344 25.3366 0 16.5 0C7.66344 0 0.5 7.16344 0.5 16C0.5 24.8366 7.66344 32 16.5 32Z" fill="white" fill-opacity="0.04"/>
<path d="M16.5 31.5C25.0604 31.5 32 24.5604 32 16C32 7.43959 25.0604 0.5 16.5 0.5C7.93959 0.5 1 7.43959 1 16C1 24.5604 7.93959 31.5 16.5 31.5Z" stroke="white" stroke-opacity="0.25"/>
<path fill-rule="evenodd" clip-rule="evenodd" d="M8.08856 9.94845C7.5 11.1036 7.5 12.6157 7.5 15.64V16.36C7.5 19.3843 7.5 20.8964 8.08856 22.0515C8.60628 23.0676 9.43238 23.8937 10.4485 24.4114C11.6036 25 13.1157 25 16.14 25H16.86C19.8843 25 21.3964 25 22.5515 24.4114C23.5676 23.8937 24.3937 23.0676 24.9114 22.0515C25.5 20.8964 25.5 19.3843 25.5 16.36V15.64C25.5 12.6157 25.5 11.1036 24.9114 9.94845C24.3937 8.93238 23.5676 8.10628 22.5515 7.58856C21.3964 7 19.8843 7 16.86 7H16.14C13.1157 7 11.6036 7 10.4485 7.58856C9.43238 8.10628 8.60628 8.93238 8.08856 9.94845ZM20.2601 8.86759C19.45 8.8014 18.4018 8.8 16.86 8.8H16.14C14.5982 8.8 13.55 8.8014 12.7399 8.86759C11.9507 8.93207 11.5472 9.04894 11.2656 9.19238C10.5883 9.53752 10.0375 10.0883 9.69238 10.7656C9.54894 11.0472 9.43207 11.4507 9.36759 12.2399C9.3014 13.05 9.3 14.0982 9.3 15.64V16.36C9.3 17.9018 9.3014 18.95 9.36759 19.7601C9.43207 20.5493 9.54894 20.9528 9.69238 21.2344C10.0375 21.9117 10.5883 22.4625 11.2656 22.8076C11.5472 22.9511 11.9507 23.0679 12.7399 23.1324C13.55 23.1986 14.5982 23.2 16.14 23.2H16.86C18.4018 23.2 19.45 23.1986 20.2601 23.1324C21.0493 23.0679 21.4528 22.9511 21.7344 22.8076C22.4117 22.4625 22.9625 21.9117 23.3076 21.2344C23.4511 20.9528 23.5679 20.5493 23.6324 19.7601C23.6986 18.95 23.7 17.9018 23.7 16.36V15.64C23.7 14.0982 23.6986 13.05 23.6324 12.2399C23.5679 11.4507 23.4511 11.0472 23.3076 10.7656C22.9625 10.0883 22.4117 9.53752 21.7344 9.19238C21.4528 9.04894 21.0493 8.93207 20.2601 8.86759ZM22.8 11.05C22.8 11.7956 22.1956 12.4 21.45 12.4C20.7044 12.4 20.1 11.7956 20.1 11.05C20.1 10.3044 20.7044 9.7 21.45 9.7C22.1956 9.7 22.8 10.3044 22.8 11.05ZM16.5 20.5C18.9853 20.5 21 18.4853 21 16C21 13.5147 18.9853 11.5 16.5 11.5C14.0147 11.5 12 13.5147 12 16C12 18.4853 14.0147 20.5 16.5 20.5ZM16.5 18.7C17.9912 18.7 19.2 17.4912 19.2 16C19.2 14.5088 17.9912 13.3 16.5 13.3C15.0088 13.3 13.8 14.5088 13.8 16C13.8 17.4912 15.0088 18.7 16.5 18.7Z" fill="white"/>
</g>
<defs>
<clipPath id="clip0_3775_11520">
<rect width="32" height="32" fill="white" transform="translate(0.5)"/>
</clipPath>
</defs>
</svg>
